<?xml version="1.0" standalone="no"?>
<svg width="700.000000" height="500.000000" version="1.1" xmlns="http://www.w3.org/2000/svg"    xmlns:xlink="http://www.w3.org/1999/xlink">
<rect x="0" y="0" width="700.000000" height="500.000000" stroke="black" fill="none" stroke-width="1"/>
 <polyline points="50.000000 50.000000 62.000000 404.939033 74.000000 415.224302 86.000000 420.738671 98.000000 422.970365 110.000000 424.751991 122.000000 426.538945 134.000000 427.262685 146.000000 429.757395 158.000000 434.925877 170.000000 436.490954 182.000000 436.799747 194.000000 437.904988 206.000000 438.797725 218.000000 439.056993 230.000000 439.455069 242.000000 439.801845 254.000000 440.120503 266.000000 440.377502 278.000000 440.532095 290.000000 440.712734 302.000000 440.854404 314.000000 441.010774 326.000000 441.507506 338.000000 442.819629 350.000000 443.400613 362.000000 444.439854 374.000000 444.952470 386.000000 445.754148 398.000000 446.803353 410.000000 446.888394 422.000000 447.265062 434.000000 447.717893 446.000000 447.593093 458.000000 447.462374 470.000000 448.475274 482.000000 448.782784 494.000000 448.969145 506.000000 449.182636 518.000000 449.334073 530.000000 449.514120 542.000000 449.494685 554.000000 449.612480 566.000000 449.662005 578.000000 449.544999 590.000000 449.603107 602.000000 449.663189 614.000000 449.770329 626.000000 449.851918 638.000000 449.924824 650.000000 450.000000 " stroke="rgb(255,0,0)" fill="none" stroke-width="2"/>
<text x="600" y="50" fill="rgb(255,0,0)">conv10.txt</text>
<line x1="50" x2="650" y1="450" y2="450" stroke="rgb(100,100,100)" stroke-width="2"/>
<line x1="50" x2="50" y1="450" y2="50" stroke="rgb(100,100,100)" stroke-width="2"/>
<text x="5" y="500" fill="rgb(0,0,0)">0.00</text>
<text x="645.000000" y="500.000000" fill="black">50.00</text>
<text x="250" y="500.000000" fill="black"> step</text>
<text x="5" y="50.000000" fill="black">4.29</text>
<text x="5" y="450.000000" fill="black">0.23</text>
<text x="5" y="250" fill="black">err</text>
</svg>
