<?xml version="1.0" standalone="no"?>
<svg width="700.000000" height="500.000000" version="1.1" xmlns="http://www.w3.org/2000/svg"    xmlns:xlink="http://www.w3.org/1999/xlink">
<rect x="0" y="0" width="700.000000" height="500.000000" stroke="black" fill="none" stroke-width="1"/>
 <polyline points="50.000000 50.000000 53.000000 431.250136 56.000000 436.931570 59.000000 439.715458 62.000000 441.386518 65.000000 442.461875 68.000000 442.214145 71.000000 443.652428 74.000000 444.315166 77.000000 444.773385 80.000000 445.122926 83.000000 445.121823 86.000000 445.553365 89.000000 445.573243 92.000000 446.303244 95.000000 446.346053 98.000000 446.729618 101.000000 446.886893 104.000000 447.231595 107.000000 447.369880 110.000000 447.596181 113.000000 447.712717 116.000000 447.845680 119.000000 447.922251 122.000000 448.071304 125.000000 448.114465 128.000000 448.296855 131.000000 448.345992 134.000000 448.549834 137.000000 448.678333 140.000000 448.737465 143.000000 448.830673 146.000000 448.864083 149.000000 449.007087 152.000000 449.048303 155.000000 449.065548 158.000000 449.130787 161.000000 449.172919 164.000000 449.206659 167.000000 449.247693 170.000000 449.274263 173.000000 449.299656 176.000000 449.329188 179.000000 449.313580 182.000000 449.343624 185.000000 449.349048 188.000000 449.381964 191.000000 449.402410 194.000000 449.411388 197.000000 449.422816 200.000000 449.435183 203.000000 449.453565 206.000000 449.460087 209.000000 449.476030 212.000000 449.491279 215.000000 449.498221 218.000000 449.489022 221.000000 449.500729 224.000000 449.504123 227.000000 449.537641 230.000000 449.536646 233.000000 449.509957 236.000000 449.558434 239.000000 449.542593 242.000000 449.543128 245.000000 449.556336 248.000000 449.592913 251.000000 449.595523 254.000000 449.607730 257.000000 449.618471 260.000000 449.629763 263.000000 449.628125 266.000000 449.644881 269.000000 449.654928 272.000000 449.660449 275.000000 449.667926 278.000000 449.676767 281.000000 449.681236 284.000000 449.684113 287.000000 449.690840 290.000000 449.694075 293.000000 449.697589 296.000000 449.704594 299.000000 449.704923 302.000000 449.714112 305.000000 449.717279 308.000000 449.720321 311.000000 449.721617 314.000000 449.728991 317.000000 449.732551 320.000000 449.733654 323.000000 449.741887 326.000000 449.688258 329.000000 449.645086 332.000000 449.708210 335.000000 449.491597 338.000000 448.802392 341.000000 448.597322 344.000000 448.692792 347.000000 448.658637 350.000000 448.323078 353.000000 448.640767 356.000000 447.970665 359.000000 449.125596 362.000000 449.106406 365.000000 449.106867 368.000000 449.259957 371.000000 449.244020 374.000000 449.349122 377.000000 449.477571 380.000000 449.404315 383.000000 449.454219 386.000000 449.364537 389.000000 449.571062 392.000000 449.541394 395.000000 449.614650 398.000000 449.674356 401.000000 449.682254 404.000000 449.756232 407.000000 449.763897 410.000000 449.820448 413.000000 449.827453 416.000000 449.829431 419.000000 449.851265 422.000000 449.862938 425.000000 449.868766 428.000000 449.873331 431.000000 449.876061 434.000000 449.879154 437.000000 449.881917 440.000000 449.884083 443.000000 449.887347 446.000000 449.889781 449.000000 449.891862 452.000000 449.894500 455.000000 449.897974 458.000000 449.901118 461.000000 449.902181 464.000000 449.905411 467.000000 449.907492 470.000000 449.908794 473.000000 449.911313 476.000000 449.913360 479.000000 449.917311 482.000000 449.919227 485.000000 449.922605 488.000000 449.926175 491.000000 449.929928 494.000000 449.932538 497.000000 449.935392 500.000000 449.937541 503.000000 449.938917 506.000000 449.940470 509.000000 449.942642 512.000000 449.943796 515.000000 449.946002 518.000000 449.947992 521.000000 449.949618 524.000000 449.951278 527.000000 449.952933 530.000000 449.954838 533.000000 449.956458 536.000000 449.958033 539.000000 449.959511 542.000000 449.960865 545.000000 449.962764 548.000000 449.964088 551.000000 449.966158 554.000000 449.965589 557.000000 449.967801 560.000000 449.969860 563.000000 449.971815 566.000000 449.974221 569.000000 449.975352 572.000000 449.976364 575.000000 449.977461 578.000000 449.978252 581.000000 449.979076 584.000000 449.979889 587.000000 449.980754 590.000000 449.981299 593.000000 449.982129 596.000000 449.982630 599.000000 449.983875 602.000000 449.985837 605.000000 449.987070 608.000000 449.987486 611.000000 449.988191 614.000000 449.988708 617.000000 449.989305 620.000000 449.989936 623.000000 449.990630 626.000000 449.991181 629.000000 449.991977 632.000000 449.993228 635.000000 449.995070 638.000000 449.995690 641.000000 449.996606 644.000000 449.997555 647.000000 449.998425 650.000000 450.000000 " stroke="rgb(255,0,0)" fill="none" stroke-width="2"/>
<text x="600" y="50" fill="rgb(255,0,0)">convtry3.txt</text>
<line x1="50" x2="650" y1="450" y2="450" stroke="rgb(100,100,100)" stroke-width="2"/>
<line x1="50" x2="50" y1="450" y2="50" stroke="rgb(100,100,100)" stroke-width="2"/>
<text x="5" y="500" fill="rgb(0,0,0)">0.00</text>
<text x="645.000000" y="500.000000" fill="black">200.00</text>
<text x="250" y="500.000000" fill="black"> step</text>
<text x="5" y="50.000000" fill="black">7.05</text>
<text x="5" y="450.000000" fill="black">0.01</text>
<text x="5" y="250" fill="black">err</text>
</svg>
