<?xml version="1.0" standalone="no"?>
<svg width="700.000000" height="500.000000" version="1.1" xmlns="http://www.w3.org/2000/svg"    xmlns:xlink="http://www.w3.org/1999/xlink">
<rect x="0" y="0" width="700.000000" height="500.000000" stroke="black" fill="none" stroke-width="1"/>
 <polyline points="50.000000 50.000000 62.000000 432.035237 74.000000 436.523190 86.000000 439.956742 98.000000 441.506216 110.000000 442.853135 122.000000 444.127459 134.000000 444.687194 146.000000 444.348482 158.000000 445.390073 170.000000 445.914542 182.000000 445.705149 194.000000 446.617166 206.000000 447.039813 218.000000 447.380563 230.000000 447.245605 242.000000 447.603675 254.000000 448.068217 266.000000 448.137997 278.000000 448.310670 290.000000 448.717385 302.000000 448.805922 314.000000 449.055895 326.000000 449.096256 338.000000 449.257872 350.000000 449.317111 362.000000 449.356111 374.000000 449.511689 386.000000 449.559952 398.000000 449.642039 410.000000 449.654700 422.000000 449.724521 434.000000 449.760458 446.000000 449.787910 458.000000 449.810811 470.000000 449.831402 482.000000 449.851108 494.000000 449.865482 506.000000 449.876394 518.000000 449.887561 530.000000 449.896007 542.000000 449.904204 554.000000 449.910804 566.000000 449.922127 578.000000 449.932124 590.000000 449.942463 602.000000 449.951627 614.000000 449.962534 626.000000 449.972363 638.000000 449.984868 650.000000 450.000000 " stroke="rgb(255,0,0)" fill="none" stroke-width="2"/>
<text x="600" y="50" fill="rgb(255,0,0)">convtry4.txt</text>
<line x1="50" x2="650" y1="450" y2="450" stroke="rgb(100,100,100)" stroke-width="2"/>
<line x1="50" x2="50" y1="450" y2="50" stroke="rgb(100,100,100)" stroke-width="2"/>
<text x="5" y="500" fill="rgb(0,0,0)">0.00</text>
<text x="645.000000" y="500.000000" fill="black">50.00</text>
<text x="250" y="500.000000" fill="black"> step</text>
<text x="5" y="50.000000" fill="black">6.92</text>
<text x="5" y="450.000000" fill="black">0.01</text>
<text x="5" y="250" fill="black">err</text>
</svg>
