<?xml version="1.0" standalone="no"?>
<svg width="700.000000" height="500.000000" version="1.1" xmlns="http://www.w3.org/2000/svg"    xmlns:xlink="http://www.w3.org/1999/xlink">
<rect x="0" y="0" width="700.000000" height="500.000000" stroke="black" fill="none" stroke-width="1"/>
 <polyline points="50.000000 50.000000 56.000000 433.233761 62.000000 437.480274 68.000000 440.490455 74.000000 441.895867 80.000000 442.798535 86.000000 443.631252 92.000000 444.043920 98.000000 444.309363 104.000000 444.103548 110.000000 444.542455 116.000000 445.257790 122.000000 445.262888 128.000000 445.602947 134.000000 445.379463 140.000000 446.055077 146.000000 446.284743 152.000000 446.192856 158.000000 446.074216 164.000000 446.702924 170.000000 445.988004 176.000000 446.384115 182.000000 447.212254 188.000000 447.248515 194.000000 447.468418 200.000000 446.951263 206.000000 447.580010 212.000000 447.110667 218.000000 447.480540 224.000000 447.734611 230.000000 447.536345 236.000000 447.190184 242.000000 447.326758 248.000000 447.365655 254.000000 447.792988 260.000000 448.152878 266.000000 448.433644 272.000000 448.327063 278.000000 447.762793 284.000000 448.164475 290.000000 448.138883 296.000000 448.361807 302.000000 448.594369 308.000000 448.545397 314.000000 448.608716 320.000000 448.536182 326.000000 448.761610 332.000000 448.682605 338.000000 448.799670 344.000000 448.663587 350.000000 448.770704 356.000000 448.984246 362.000000 449.207511 368.000000 448.910888 374.000000 449.221692 380.000000 449.300840 386.000000 449.331981 392.000000 449.486927 398.000000 449.523050 404.000000 449.483023 410.000000 449.258195 416.000000 449.222620 422.000000 449.490705 428.000000 449.565551 434.000000 449.669987 440.000000 449.746258 446.000000 449.782732 452.000000 449.764982 458.000000 449.748190 464.000000 449.724546 470.000000 449.817465 476.000000 449.846091 482.000000 449.826554 488.000000 449.869908 494.000000 449.888027 500.000000 449.913205 506.000000 449.928296 512.000000 449.934536 518.000000 449.943901 524.000000 449.948907 530.000000 449.954760 536.000000 449.961674 542.000000 449.969661 548.000000 449.975474 554.000000 449.980606 560.000000 449.983888 566.000000 449.986615 572.000000 449.988766 578.000000 449.990831 584.000000 449.991454 590.000000 449.993610 596.000000 449.994856 602.000000 449.995652 608.000000 449.996592 614.000000 449.997030 620.000000 449.998062 626.000000 449.997682 632.000000 449.999573 638.000000 449.999337 644.000000 449.999544 650.000000 450.000000 " stroke="rgb(255,0,0)" fill="none" stroke-width="2"/>
<text x="600" y="50" fill="rgb(255,0,0)">conv10.txt</text>
<line x1="50" x2="650" y1="450" y2="450" stroke="rgb(100,100,100)" stroke-width="2"/>
<line x1="50" x2="50" y1="450" y2="50" stroke="rgb(100,100,100)" stroke-width="2"/>
<text x="5" y="500" fill="rgb(0,0,0)">0.00</text>
<text x="645.000000" y="500.000000" fill="black">100.00</text>
<text x="250" y="500.000000" fill="black"> step</text>
<text x="5" y="50.000000" fill="black">6.95</text>
<text x="5" y="450.000000" fill="black">0.01</text>
<text x="5" y="250" fill="black">err</text>
</svg>
