<?xml version="1.0" standalone="no"?>
<svg width="700.000000" height="500.000000" version="1.1" xmlns="http://www.w3.org/2000/svg"    xmlns:xlink="http://www.w3.org/1999/xlink">
<rect x="0" y="0" width="700.000000" height="500.000000" stroke="black" fill="none" stroke-width="1"/>
 <polyline points="50.000000 50.000000 52.400000 438.437632 54.800000 440.723301 57.200000 441.354235 59.600000 442.019492 62.000000 442.048441 64.400000 442.343424 66.800000 444.211321 69.200000 443.291876 71.600000 443.819321 74.000000 443.705141 76.400000 444.518612 78.800000 444.141057 81.200000 444.334919 83.600000 444.877763 86.000000 445.017529 88.400000 445.362534 90.800000 444.335728 93.200000 445.817051 95.600000 445.433232 98.000000 445.999946 100.400000 446.014392 102.800000 445.933946 105.200000 445.363713 107.600000 446.164934 110.000000 446.520791 112.400000 446.603739 114.800000 446.455751 117.200000 446.626182 119.600000 446.721160 122.000000 446.410639 124.400000 445.562135 126.800000 446.630493 129.200000 446.731613 131.600000 446.438549 134.000000 446.746827 136.400000 446.853443 138.800000 447.050403 141.200000 447.042232 143.600000 446.988089 146.000000 447.163710 148.400000 447.207319 150.800000 447.397379 153.200000 447.114299 155.600000 446.818323 158.000000 447.326265 160.400000 447.167957 162.800000 446.920708 165.200000 447.081900 167.600000 447.226398 170.000000 447.337879 172.400000 447.183616 174.800000 446.963035 177.200000 447.386712 179.600000 447.247588 182.000000 447.555982 184.400000 447.249645 186.800000 447.374514 189.200000 447.323197 191.600000 447.140331 194.000000 447.331477 196.400000 447.384632 198.800000 447.690351 201.200000 447.872813 203.600000 447.665539 206.000000 447.168858 208.400000 447.154695 210.800000 447.499765 213.200000 447.792055 215.600000 447.430425 218.000000 447.154141 220.400000 447.726910 222.800000 447.655213 225.200000 447.920819 227.600000 447.428819 230.000000 447.734821 232.400000 447.855010 234.800000 447.907927 237.200000 447.989298 239.600000 448.009250 242.000000 448.161150 244.400000 448.237852 246.800000 448.156071 249.200000 448.252153 251.600000 448.372192 254.000000 448.054858 256.400000 448.279253 258.800000 448.388510 261.200000 448.343993 263.600000 448.428524 266.000000 447.962295 268.400000 448.326381 270.800000 448.172586 273.200000 448.395600 275.600000 448.333783 278.000000 448.262444 280.400000 448.489439 282.800000 448.248021 285.200000 448.388648 287.600000 448.464177 290.000000 448.483314 292.400000 448.195705 294.800000 448.468759 297.200000 448.541843 299.600000 448.390127 302.000000 448.318500 304.400000 448.541918 306.800000 448.204147 309.200000 448.565233 311.600000 448.425999 314.000000 448.598979 316.400000 448.600724 318.800000 448.803774 321.200000 448.831833 323.600000 448.739773 326.000000 448.690426 328.400000 448.812551 330.800000 448.709905 333.200000 448.741426 335.600000 448.643686 338.000000 448.623664 340.400000 448.778424 342.800000 448.845846 345.200000 448.681661 347.600000 448.890882 350.000000 448.809939 352.400000 448.921224 354.800000 448.992072 357.200000 449.006015 359.600000 449.005853 362.000000 448.913186 364.400000 448.695719 366.800000 449.054801 369.200000 448.943944 371.600000 449.148849 374.000000 449.103125 376.400000 449.091279 378.800000 448.872617 381.200000 449.140626 383.600000 448.864215 386.000000 449.183501 388.400000 449.093770 390.800000 448.961135 393.200000 449.330750 395.600000 449.128168 398.000000 449.277029 400.400000 449.071223 402.800000 449.059453 405.200000 449.132652 407.600000 449.251194 410.000000 449.107846 412.400000 449.173701 414.800000 449.218587 417.200000 449.190233 419.600000 449.326191 422.000000 449.304153 424.400000 449.131635 426.800000 449.181150 429.200000 449.243769 431.600000 449.373770 434.000000 449.214531 436.400000 449.185749 438.800000 449.189632 441.200000 449.236592 443.600000 449.331160 446.000000 449.413068 448.400000 449.290966 450.800000 449.393104 453.200000 449.511889 455.600000 449.518262 458.000000 449.585163 460.400000 449.522290 462.800000 449.610345 465.200000 449.570429 467.600000 449.326480 470.000000 449.169385 472.400000 449.236824 474.800000 449.255632 477.200000 449.408804 479.600000 449.467869 482.000000 449.330207 484.400000 449.435996 486.800000 449.546142 489.200000 449.385032 491.600000 449.390405 494.000000 449.238771 496.400000 449.280641 498.800000 449.503273 501.200000 449.550823 503.600000 449.448893 506.000000 449.501020 508.400000 449.428831 510.800000 449.625716 513.200000 449.470175 515.600000 449.542329 518.000000 449.311375 520.400000 449.404060 522.800000 449.335696 525.200000 449.438325 527.600000 449.257129 530.000000 449.118334 532.400000 449.483529 534.800000 449.339516 537.200000 449.548581 539.600000 449.586793 542.000000 449.439475 544.400000 449.522076 546.800000 449.310052 549.200000 449.421192 551.600000 449.541121 554.000000 449.690768 556.400000 449.708432 558.800000 449.633903 561.200000 449.640075 563.600000 449.701388 566.000000 449.764280 568.400000 449.684516 570.800000 449.701648 573.200000 449.767943 575.600000 449.665320 578.000000 449.794477 580.400000 449.804687 582.800000 449.808160 585.200000 449.815504 587.600000 449.800359 590.000000 449.844714 592.400000 449.859720 594.800000 449.859876 597.200000 449.882498 599.600000 449.924015 602.000000 449.938663 604.400000 449.931683 606.800000 449.915197 609.200000 449.922079 611.600000 449.842512 614.000000 449.906374 616.400000 449.943269 618.800000 449.961141 621.200000 449.970866 623.600000 449.987733 626.000000 449.986115 628.400000 449.985855 630.800000 449.988819 633.200000 449.991338 635.600000 449.993395 638.000000 449.994904 640.400000 449.996244 642.800000 449.997255 645.200000 449.998232 647.600000 449.999081 650.000000 450.000000 " stroke="rgb(255,0,0)" fill="none" stroke-width="2"/>
<text x="600" y="50" fill="rgb(255,0,0)">convtry7.txt</text>
<line x1="50" x2="650" y1="450" y2="450" stroke="rgb(100,100,100)" stroke-width="2"/>
<line x1="50" x2="50" y1="450" y2="50" stroke="rgb(100,100,100)" stroke-width="2"/>
<text x="5" y="500" fill="rgb(0,0,0)">0.00</text>
<text x="645.000000" y="500.000000" fill="black">250.00</text>
<text x="250" y="500.000000" fill="black"> step</text>
<text x="5" y="50.000000" fill="black">6.93</text>
<text x="5" y="450.000000" fill="black">0.01</text>
<text x="5" y="250" fill="black">err</text>
</svg>
