<?xml version="1.0" standalone="no"?>
<svg width="700.000000" height="500.000000" version="1.1" xmlns="http://www.w3.org/2000/svg"    xmlns:xlink="http://www.w3.org/1999/xlink">
<rect x="0" y="0" width="700.000000" height="500.000000" stroke="black" fill="none" stroke-width="1"/>
 <polyline points="50.000000 223.864750 53.973510 211.689538 57.947020 199.123176 61.920530 245.424517 65.894040 253.126116 69.867550 234.540806 73.841060 217.824700 77.814570 280.415520 81.788079 287.270289 85.761589 265.090920 89.735099 240.927967 93.708609 302.302826 97.682119 315.673815 101.655629 300.108836 105.629139 267.824692 109.602649 307.121104 113.576159 324.217657 117.549669 331.362042 121.523179 295.679568 125.496689 307.830925 129.470199 322.404724 133.443709 353.964674 137.417219 322.432554 141.390728 314.702208 145.364238 324.345186 149.337748 369.142478 153.311258 346.507735 157.284768 329.266221 161.258278 334.724285 165.231788 380.522850 169.205298 366.801385 173.178808 348.062551 177.152318 350.898163 181.125828 390.360027 185.099338 383.073739 189.072848 366.720342 193.046358 368.157721 197.019868 399.164738 200.993377 395.658450 204.966887 382.610413 208.940397 383.355098 212.913907 406.777647 216.887417 405.173593 220.860927 395.061785 224.834437 395.467004 228.807947 413.088658 232.781457 412.354983 236.754967 404.520656 240.728477 404.754307 244.701987 418.210315 248.675497 417.868402 252.649007 411.728959 256.622517 411.871474 260.596026 422.368010 264.569536 422.211122 268.543046 417.328009 272.516556 417.419451 276.490066 425.783773 280.463576 425.721690 284.437086 421.780520 288.410596 421.841379 292.384106 428.635900 296.357616 428.626113 300.331126 425.400880 304.304636 425.443084 308.278146 431.054978 312.251656 431.075774 316.225166 428.404390 320.198675 428.434361 324.172185 433.136119 328.145695 433.176182 332.119205 430.939070 336.092715 430.960784 340.066225 434.948807 344.039735 435.001134 348.013245 433.109818 351.986755 433.126027 355.960265 436.544848 359.933775 436.605004 363.907285 434.992081 367.880795 435.004437 371.854305 437.962960 375.827815 438.028070 379.801325 436.642162 383.774834 436.651734 387.748344 439.233053 391.721854 439.301160 395.695364 438.102172 399.668874 438.109665 403.642384 440.378399 407.615894 440.448189 411.589404 439.404529 415.562914 439.410493 419.536424 441.417594 423.509934 441.488056 427.483444 440.574556 431.456954 440.579326 435.430464 442.365438 439.403974 442.435870 443.377483 441.632314 447.350993 441.636198 451.324503 443.234135 455.298013 443.304046 459.271523 442.593951 463.245033 442.597101 467.218543 444.033623 471.192053 444.102648 475.165563 443.472526 479.139073 443.475156 483.112583 444.772283 487.086093 444.840176 491.059603 444.278865 495.033113 444.281036 499.006623 445.457087 502.980132 445.523635 506.953642 445.021867 510.927152 445.023672 514.900662 446.093938 518.874172 446.159018 522.847682 445.709026 526.821192 445.710586 530.794702 446.687912 534.768212 446.751462 538.741722 446.346672 542.715232 446.347987 546.688742 447.243382 550.662252 447.305343 554.635762 446.940218 558.609272 446.941349 562.582781 447.764050 566.556291 447.824420 570.529801 447.494220 574.503311 447.495199 578.476821 448.253248 582.450331 448.311997 586.423841 448.012686 590.397351 448.013512 594.370861 448.713852 598.344371 448.770980 602.317881 448.499040 606.291391 448.499743 610.264901 449.148307 614.238411 449.203845 618.211921 448.956249 622.185430 448.956891 626.158940 449.558878 630.132450 449.612856 634.105960 449.387034 638.079470 449.387585 642.052980 449.947551 646.026490 450.000000 650.000000 449.793598 " stroke="rgb(255,0,0)" fill="none" stroke-width="2"/>
 <polyline points="50.000000 129.554339 53.973510 132.364874 57.947020 61.073935 61.920530 140.093079 65.894040 152.573811 69.867550 108.825499 73.841060 50.000000 77.814570 113.168219 81.788079 150.191431 85.761589 100.910740 89.735099 50.675874 93.708609 99.971856 97.682119 141.661963 101.655629 99.733313 105.629139 56.535487 109.602649 95.109234 113.576159 134.053029 117.549669 100.372488 121.523179 64.223935 125.496689 93.986855 129.470199 127.719387 133.443709 101.864915 137.417219 72.517918 141.390728 95.078651 145.364238 122.911813 149.337748 103.953702 153.311258 80.756852 157.284768 97.577244 161.258278 119.761813 165.231788 106.443120 169.205298 88.515640 173.178808 100.883216 177.152318 118.171521 181.125828 109.171082 185.099338 95.549622 189.072848 104.543945 193.046358 117.856521 197.019868 111.981617 200.993377 101.757876 204.966887 108.247489 208.940397 118.468171 212.913907 114.773802 216.887417 107.149577 220.860927 111.810354 224.834437 119.688414 228.807947 117.465064 232.781457 111.804238 236.754967 115.137734 240.728477 121.266473 244.701987 120.012589 248.675497 115.813608 252.649007 118.192929 256.622517 123.018852 260.596026 122.394969 264.569536 119.275550 268.543046 120.972881 272.516556 124.823221 276.490066 124.606086 280.463576 122.281813 284.437086 123.492881 288.410596 126.609241 292.384106 126.639824 296.357616 124.908853 300.331126 125.768222 304.304636 128.324921 308.278146 128.511475 312.251656 127.217834 316.225166 127.823368 320.198675 129.951912 324.172185 130.227155 328.145695 129.257689 332.119205 129.685844 336.092715 131.477980 340.066225 131.799097 344.039735 131.077349 348.013245 131.370941 351.986755 132.897010 355.960265 133.242592 359.933775 132.701282 363.907285 132.903126 367.880795 134.218175 371.854305 134.569874 375.827815 134.166185 379.801325 134.297690 383.774834 135.441476 387.748344 135.787059 391.721854 135.487350 395.695364 135.572981 399.668874 136.573030 403.642384 136.906380 407.615894 136.689244 411.589404 136.738176 415.562914 137.618953 419.536424 137.937011 423.509934 137.781040 427.483444 137.805506 431.456954 138.591477 435.430464 138.891186 439.403974 138.781089 443.377483 138.787205 447.350993 139.490604 451.324503 139.771963 455.298013 139.698565 459.271523 139.689390 463.245033 140.322448 467.218543 140.588516 471.192053 140.545701 475.165563 140.527351 479.139073 141.099245 483.112583 141.346963 487.086093 141.322497 491.059603 141.298031 495.033113 141.817934 499.006623 142.050361 502.980132 142.044245 506.953642 142.016721 510.927152 142.490750 514.900662 142.707886 518.874172 142.714002 522.847682 142.683420 526.821192 143.117692 530.794702 143.319537 534.768212 143.334828 538.741722 143.301187 542.715232 143.701818 546.688742 143.891430 550.662252 143.915896 554.635762 143.882255 558.609272 144.249245 562.582781 144.426624 566.556291 144.457207 570.529801 144.420508 574.503311 144.763032 578.476821 144.928178 582.450331 144.961818 586.423841 144.928178 590.397351 145.246236 594.370861 145.399149 598.344371 145.435848 602.317881 145.402207 606.291391 145.698857 610.264901 145.842595 614.238411 145.882353 618.211921 145.848712 622.185430 146.123955 626.158940 146.261576 630.132450 146.301333 634.105960 146.267693 638.079470 146.524586 642.052980 146.653032 646.026490 146.695848 650.000000 146.665265 " stroke="rgb(0,255,0)" fill="none" stroke-width="2"/>
<text x="600" y="50" fill="rgb(255,0,0)">cg.txt</text>
<text x="600" y="70" fill="rgb(0,255,0)">cg0to1.txt</text>
<line x1="50" x2="650" y1="450" y2="450" stroke="rgb(100,100,100)" stroke-width="2"/>
<line x1="50" x2="50" y1="450" y2="50" stroke="rgb(100,100,100)" stroke-width="2"/>
<text x="5" y="500" fill="rgb(0,0,0)">0.00</text>
<text x="645.000000" y="500.000000" fill="black">151.00</text>
<text x="250" y="500.000000" fill="black"> step</text>
<text x="5" y="50.000000" fill="black">1.36</text>
<text x="5" y="450.000000" fill="black">0.05</text>
<text x="5" y="250" fill="black">err</text>
</svg>
