<?xml version="1.0" standalone="no"?>
<svg width="700.000000" height="500.000000" version="1.1" xmlns="http://www.w3.org/2000/svg"    xmlns:xlink="http://www.w3.org/1999/xlink">
<rect x="0" y="0" width="700.000000" height="500.000000" stroke="black" fill="none" stroke-width="1"/>
 <polyline points="50.000000 86.363636 50.938967 142.561983 51.877934 202.066116 52.816901 178.925620 53.755869 66.528926 54.694836 211.983471 55.633803 56.611570 56.572770 139.256198 57.511737 198.760331 58.450704 92.975207 59.389671 102.892562 60.328638 135.950413 61.267606 89.669421 62.206573 59.917355 63.145540 112.809917 64.084507 188.842975 65.023474 149.173554 65.962441 96.280992 66.901408 142.561983 67.840376 155.785124 68.779343 178.925620 69.718310 172.314050 70.657277 109.504132 71.596244 175.619835 72.535211 79.752066 73.474178 86.363636 74.413146 172.314050 75.352113 66.528926 76.291080 202.066116 77.230047 112.809917 78.169014 92.975207 79.107981 69.834711 80.046948 198.760331 80.985915 76.446281 81.924883 198.760331 82.863850 211.983471 83.802817 76.446281 84.741784 202.066116 85.680751 139.256198 86.619718 59.917355 87.558685 79.752066 88.497653 195.454545 89.436620 142.561983 90.375587 116.115702 91.314554 208.677686 92.253521 208.677686 93.192488 86.363636 94.131455 139.256198 95.070423 86.363636 96.009390 178.925620 96.948357 79.752066 97.887324 53.305785 98.826291 132.644628 99.765258 135.950413 100.704225 175.619835 101.643192 159.090909 102.582160 175.619835 103.521127 129.338843 104.460094 178.925620 105.399061 159.090909 106.338028 192.148760 107.276995 50.000000 108.215962 172.314050 109.154930 172.314050 110.093897 79.752066 111.032864 159.090909 111.971831 172.314050 112.910798 106.198347 113.849765 149.173554 114.788732 92.975207 115.727700 112.809917 116.666667 175.619835 117.605634 76.446281 118.544601 202.066116 119.483568 69.834711 120.422535 66.528926 121.361502 192.148760 122.300469 109.504132 123.239437 149.173554 124.178404 66.528926 125.117371 69.834711 126.056338 175.619835 126.995305 66.528926 127.934272 152.479339 128.873239 99.586777 129.812207 185.537190 130.751174 99.586777 131.690141 53.305785 132.629108 102.892562 133.568075 56.611570 134.507042 159.090909 135.446009 76.446281 136.384977 59.917355 137.323944 119.421488 138.262911 202.066116 139.201878 92.975207 140.140845 66.528926 141.079812 155.785124 142.018779 145.867769 142.957746 159.090909 143.896714 202.066116 144.835681 205.371901 145.774648 116.115702 146.713615 59.917355 147.652582 195.454545 148.591549 139.256198 149.530516 69.834711 150.469484 175.619835 151.408451 198.760331 152.347418 165.702479 153.286385 188.842975 154.225352 56.611570 155.164319 129.338843 156.103286 205.371901 157.042254 155.785124 157.981221 175.619835 158.920188 172.314050 159.859155 205.371901 160.798122 182.231405 161.737089 63.223140 162.676056 208.677686 163.615023 119.421488 164.553991 83.057851 165.492958 56.611570 166.431925 192.148760 167.370892 66.528926 168.309859 96.280992 169.248826 202.066116 170.187793 165.702479 171.126761 185.537190 172.065728 142.561983 173.004695 155.785124 173.943662 178.925620 174.882629 211.983471 175.821596 159.090909 176.760563 159.090909 177.699531 135.950413 178.638498 175.619835 179.577465 116.115702 180.516432 116.115702 181.455399 129.338843 182.394366 89.669421 183.333333 126.033058 184.272300 205.371901 185.211268 76.446281 186.150235 59.917355 187.089202 169.008264 188.028169 202.066116 188.967136 211.983471 189.906103 129.338843 190.845070 211.983471 191.784038 208.677686 192.723005 202.066116 193.661972 83.057851 194.600939 211.983471 195.539906 175.619835 196.478873 99.586777 197.417840 96.280992 198.356808 165.702479 199.295775 53.305785 200.234742 63.223140 201.173709 89.669421 202.112676 155.785124 203.051643 192.148760 203.990610 86.363636 204.929577 96.280992 205.868545 132.644628 206.807512 175.619835 207.746479 53.305785 208.685446 202.066116 209.624413 73.140496 210.563380 129.338843 211.502347 79.752066 212.441315 145.867769 213.380282 122.727273 214.319249 109.504132 215.258216 159.090909 216.197183 76.446281 217.136150 99.586777 218.075117 159.090909 219.014085 159.090909 219.953052 89.669421 220.892019 155.785124 221.830986 142.561983 222.769953 126.033058 223.708920 149.173554 224.647887 106.198347 225.586854 172.314050 226.525822 188.842975 227.464789 50.000000 228.403756 172.314050 229.342723 205.371901 230.281690 92.975207 231.220657 106.198347 232.159624 185.537190 233.098592 132.644628 234.037559 149.173554 234.976526 106.198347 235.915493 89.669421 236.854460 152.479339 237.793427 86.363636 238.732394 116.115702 239.671362 69.834711 240.610329 119.421488 241.549296 205.371901 242.488263 142.561983 243.427230 172.314050 244.366197 152.479339 245.305164 165.702479 246.244131 59.917355 247.183099 96.280992 248.122066 112.809917 249.061033 102.892562 250.000000 198.760331 250.938967 208.677686 251.877934 172.314050 252.816901 132.644628 253.755869 96.280992 254.694836 126.033058 255.633803 102.892562 256.572770 99.586777 257.511737 83.057851 258.450704 96.280992 259.389671 135.950413 260.328638 135.950413 261.267606 66.528926 262.206573 56.611570 263.145540 73.140496 264.084507 119.421488 265.023474 89.669421 265.962441 172.314050 266.901408 159.090909 267.840376 152.479339 268.779343 192.148760 269.718310 56.611570 270.657277 145.867769 271.596244 116.115702 272.535211 182.231405 273.474178 76.446281 274.413146 69.834711 275.352113 188.842975 276.291080 119.421488 277.230047 129.338843 278.169014 69.834711 279.107981 99.586777 280.046948 119.421488 280.985915 188.842975 281.924883 178.925620 282.863850 169.008264 283.802817 102.892562 284.741784 69.834711 285.680751 211.983471 286.619718 139.256198 287.558685 116.115702 288.497653 135.950413 289.436620 56.611570 290.375587 129.338843 291.314554 139.256198 292.253521 79.752066 293.192488 195.454545 294.131455 175.619835 295.070423 205.371901 296.009390 132.644628 296.948357 106.198347 297.887324 178.925620 298.826291 142.561983 299.765258 205.371901 300.704225 76.446281 301.643192 106.198347 302.582160 63.223140 303.521127 92.975207 304.460094 83.057851 305.399061 135.950413 306.338028 175.619835 307.276995 106.198347 308.215962 185.537190 309.154930 83.057851 310.093897 83.057851 311.032864 152.479339 311.971831 195.454545 312.910798 129.338843 313.849765 165.702479 314.788732 188.842975 315.727700 50.000000 316.666667 69.834711 317.605634 112.809917 318.544601 56.611570 319.483568 152.479339 320.422535 198.760331 321.361502 83.057851 322.300469 129.338843 323.239437 159.090909 324.178404 76.446281 325.117371 50.000000 326.056338 53.305785 326.995305 198.760331 327.934272 145.867769 328.873239 205.371901 329.812207 56.611570 330.751174 205.371901 331.690141 211.983471 332.629108 99.586777 333.568075 66.528926 334.507042 135.950413 335.446009 63.223140 336.384977 126.033058 337.323944 102.892562 338.262911 89.669421 339.201878 152.479339 340.140845 198.760331 341.079812 66.528926 342.018779 69.834711 342.957746 152.479339 343.896714 208.677686 344.835681 66.528926 345.774648 169.008264 346.713615 102.892562 347.652582 76.446281 348.591549 109.504132 349.530516 83.057851 350.469484 112.809917 351.408451 185.537190 352.347418 195.454545 353.286385 132.644628 354.225352 185.537190 355.164319 195.454545 356.103286 112.809917 357.042254 119.421488 357.981221 178.925620 358.920188 122.727273 359.859155 102.892562 360.798122 178.925620 361.737089 175.619835 362.676056 122.727273 363.615023 96.280992 364.553991 182.231405 365.492958 195.454545 366.431925 142.561983 367.370892 59.917355 368.309859 129.338843 369.248826 129.338843 370.187793 73.140496 371.126761 145.867769 372.065728 69.834711 373.004695 69.834711 373.943662 162.396694 374.882629 185.537190 375.821596 119.421488 376.760563 192.148760 377.699531 83.057851 378.638498 155.785124 379.577465 83.057851 380.516432 56.611570 381.455399 129.338843 382.394366 169.008264 383.333333 188.842975 384.272300 106.198347 385.211268 69.834711 386.150235 92.975207 387.089202 73.140496 388.028169 145.867769 388.967136 142.561983 389.906103 198.760331 390.845070 99.586777 391.784038 53.305785 392.723005 79.752066 393.661972 69.834711 394.600939 195.454545 395.539906 175.619835 396.478873 76.446281 397.417840 109.504132 398.356808 86.363636 399.295775 102.892562 400.234742 208.677686 401.173709 102.892562 402.112676 119.421488 403.051643 159.090909 403.990610 76.446281 404.929577 192.148760 405.868545 129.338843 406.807512 106.198347 407.746479 129.338843 408.685446 165.702479 409.624413 109.504132 410.563380 211.983471 411.502347 122.727273 412.441315 83.057851 413.380282 102.892562 414.319249 139.256198 415.258216 122.727273 416.197183 122.727273 417.136150 66.528926 418.075117 53.305785 419.014085 106.198347 419.953052 119.421488 420.892019 59.917355 421.830986 132.644628 422.769953 135.950413 423.708920 208.677686 424.647887 89.669421 425.586854 165.702479 426.525822 99.586777 427.464789 129.338843 428.403756 56.611570 429.342723 92.975207 430.281690 178.925620 431.220657 122.727273 432.159624 198.760331 433.098592 208.677686 434.037559 102.892562 434.976526 116.115702 435.915493 102.892562 436.854460 175.619835 437.793427 63.223140 438.732394 159.090909 439.671362 169.008264 440.610329 132.644628 441.549296 195.454545 442.488263 59.917355 443.427230 59.917355 444.366197 106.198347 445.305164 126.033058 446.244131 76.446281 447.183099 112.809917 448.122066 178.925620 449.061033 142.561983 450.000000 119.421488 450.938967 92.975207 451.877934 63.223140 452.816901 106.198347 453.755869 135.950413 454.694836 182.231405 455.633803 159.090909 456.572770 211.983471 457.511737 182.231405 458.450704 198.760331 459.389671 178.925620 460.328638 92.975207 461.267606 182.231405 462.206573 169.008264 463.145540 139.256198 464.084507 79.752066 465.023474 53.305785 465.962441 96.280992 466.901408 86.363636 467.840376 165.702479 468.779343 53.305785 469.718310 172.314050 470.657277 145.867769 471.596244 56.611570 472.535211 182.231405 473.474178 205.371901 474.413146 135.950413 475.352113 205.371901 476.291080 96.280992 477.230047 96.280992 478.169014 135.950413 479.107981 162.396694 480.046948 142.561983 480.985915 145.867769 481.924883 56.611570 482.863850 59.917355 483.802817 106.198347 484.741784 159.090909 485.680751 53.305785 486.619718 76.446281 487.558685 145.867769 488.497653 185.537190 489.436620 116.115702 490.375587 109.504132 491.314554 135.950413 492.253521 202.066116 493.192488 132.644628 494.131455 142.561983 495.070423 86.363636 496.009390 172.314050 496.948357 96.280992 497.887324 89.669421 498.826291 132.644628 499.765258 188.842975 500.704225 99.586777 501.643192 96.280992 502.582160 172.314050 503.521127 182.231405 504.460094 89.669421 505.399061 56.611570 506.338028 66.528926 507.276995 169.008264 508.215962 165.702479 509.154930 155.785124 510.093897 102.892562 511.032864 172.314050 511.971831 169.008264 512.910798 155.785124 513.849765 112.809917 514.788732 175.619835 515.727700 185.537190 516.666667 205.371901 517.605634 142.561983 518.544601 79.752066 519.483568 99.586777 520.422535 66.528926 521.361502 69.834711 522.300469 178.925620 523.239437 155.785124 524.178404 99.586777 525.117371 132.644628 526.056338 198.760331 526.995305 142.561983 527.934272 211.983471 528.873239 172.314050 529.812207 188.842975 530.751174 92.975207 531.690141 132.644628 532.629108 152.479339 533.568075 129.338843 534.507042 135.950413 535.446009 165.702479 536.384977 79.752066 537.323944 83.057851 538.262911 109.504132 539.201878 126.033058 540.140845 208.677686 541.079812 66.528926 542.018779 69.834711 542.957746 102.892562 543.896714 188.842975 544.835681 198.760331 545.774648 92.975207 546.713615 119.421488 547.652582 66.528926 548.591549 139.256198 549.530516 132.644628 550.469484 83.057851 551.408451 106.198347 552.347418 69.834711 553.286385 135.950413 554.225352 185.537190 555.164319 56.611570 556.103286 66.528926 557.042254 185.537190 557.981221 175.619835 558.920188 202.066116 559.859155 59.917355 560.798122 89.669421 561.737089 142.561983 562.676056 139.256198 563.615023 172.314050 564.553991 96.280992 565.492958 165.702479 566.431925 205.371901 567.370892 159.090909 568.309859 79.752066 569.248826 202.066116 570.187793 172.314050 571.126761 92.975207 572.065728 83.057851 573.004695 142.561983 573.943662 79.752066 574.882629 129.338843 575.821596 208.677686 576.760563 92.975207 577.699531 56.611570 578.638498 122.727273 579.577465 129.338843 580.516432 109.504132 581.455399 145.867769 582.394366 50.000000 583.333333 83.057851 584.272300 152.479339 585.211268 63.223140 586.150235 56.611570 587.089202 109.504132 588.028169 50.000000 588.967136 66.528926 589.906103 149.173554 590.845070 139.256198 591.784038 152.479339 592.723005 109.504132 593.661972 185.537190 594.600939 99.586777 595.539906 102.892562 596.478873 126.033058 597.417840 129.338843 598.356808 83.057851 599.295775 76.446281 600.234742 169.008264 601.173709 119.421488 602.112676 172.314050 603.051643 202.066116 603.990610 202.066116 604.929577 165.702479 605.868545 76.446281 606.807512 205.371901 607.746479 76.446281 608.685446 159.090909 609.624413 102.892562 610.563380 165.702479 611.502347 162.396694 612.441315 139.256198 613.380282 99.586777 614.319249 169.008264 615.258216 142.561983 616.197183 162.396694 617.136150 172.314050 618.075117 155.785124 619.014085 99.586777 619.953052 92.975207 620.892019 96.280992 621.830986 152.479339 622.769953 59.917355 623.708920 139.256198 624.647887 208.677686 625.586854 135.950413 626.525822 50.000000 627.464789 79.752066 628.403756 159.090909 629.342723 172.314050 630.281690 145.867769 631.220657 112.809917 632.159624 155.785124 633.098592 129.338843 634.037559 59.917355 634.976526 185.537190 635.915493 122.727273 636.854460 79.752066 637.793427 132.644628 638.732394 178.925620 639.671362 198.760331 640.610329 73.140496 641.549296 99.586777 642.488263 86.363636 643.427230 195.454545 644.366197 185.537190 645.305164 195.454545 646.244131 149.173554 647.183099 129.338843 648.122066 73.140496 649.061033 188.842975 650.000000 169.008264 " stroke="rgb(255,0,0)" fill="none" stroke-width="2"/>
 <polyline points="50.000000 450.000000 50.938967 159.090909 51.877934 182.231405 52.816901 152.479339 53.755869 145.867769 54.694836 129.338843 55.633803 132.644628 56.572770 126.033058 57.511737 129.338843 58.450704 145.867769 59.389671 155.785124 60.328638 145.867769 61.267606 129.338843 62.206573 129.338843 63.145540 135.950413 64.084507 155.785124 65.023474 142.561983 65.962441 142.561983 66.901408 132.644628 67.840376 135.950413 68.779343 132.644628 69.718310 129.338843 70.657277 129.338843 71.596244 126.033058 72.535211 122.727273 73.474178 126.033058 74.413146 129.338843 75.352113 149.173554 76.291080 152.479339 77.230047 155.785124 78.169014 139.256198 79.107981 145.867769 80.046948 142.561983 80.985915 145.867769 81.924883 155.785124 82.863850 145.867769 83.802817 155.785124 84.741784 139.256198 85.680751 139.256198 86.619718 129.338843 87.558685 142.561983 88.497653 155.785124 89.436620 159.090909 90.375587 155.785124 91.314554 162.396694 92.253521 152.479339 93.192488 135.950413 94.131455 119.421488 95.070423 126.033058 96.009390 116.115702 96.948357 116.115702 97.887324 122.727273 98.826291 126.033058 99.765258 145.867769 100.704225 145.867769 101.643192 165.702479 102.582160 155.785124 103.521127 162.396694 104.460094 165.702479 105.399061 175.619835 106.338028 165.702479 107.276995 149.173554 108.215962 142.561983 109.154930 142.561983 110.093897 152.479339 111.032864 162.396694 111.971831 159.090909 112.910798 155.785124 113.849765 126.033058 114.788732 122.727273 115.727700 129.338843 116.666667 152.479339 117.605634 159.090909 118.544601 135.950413 119.483568 119.421488 120.422535 119.421488 121.361502 139.256198 122.300469 135.950413 123.239437 116.115702 124.178404 106.198347 125.117371 116.115702 126.056338 132.644628 126.995305 145.867769 127.934272 142.561983 128.873239 162.396694 129.812207 162.396694 130.751174 175.619835 131.690141 165.702479 132.629108 145.867769 133.568075 145.867769 134.507042 122.727273 135.446009 116.115702 136.384977 116.115702 137.323944 132.644628 138.262911 145.867769 139.201878 139.256198 140.140845 142.561983 141.079812 152.479339 142.018779 142.561983 142.957746 152.479339 143.896714 152.479339 144.835681 169.008264 145.774648 145.867769 146.713615 139.256198 147.652582 129.338843 148.591549 122.727273 149.530516 119.421488 150.469484 132.644628 151.408451 142.561983 152.347418 152.479339 153.286385 132.644628 154.225352 139.256198 155.164319 145.867769 156.103286 165.702479 157.042254 162.396694 157.981221 149.173554 158.920188 139.256198 159.859155 139.256198 160.798122 135.950413 161.737089 149.173554 162.676056 159.090909 163.615023 155.785124 164.553991 145.867769 165.492958 145.867769 166.431925 155.785124 167.370892 142.561983 168.309859 149.173554 169.248826 145.867769 170.187793 175.619835 171.126761 152.479339 172.065728 162.396694 173.004695 155.785124 173.943662 169.008264 174.882629 169.008264 175.821596 159.090909 176.760563 165.702479 177.699531 159.090909 178.638498 159.090909 179.577465 139.256198 180.516432 145.867769 181.455399 132.644628 182.394366 132.644628 183.333333 142.561983 184.272300 159.090909 185.211268 169.008264 186.150235 142.561983 187.089202 132.644628 188.028169 126.033058 188.967136 135.950413 189.906103 135.950413 190.845070 159.090909 191.784038 155.785124 192.723005 159.090909 193.661972 152.479339 194.600939 169.008264 195.539906 159.090909 196.478873 159.090909 197.417840 145.867769 198.356808 149.173554 199.295775 139.256198 200.234742 139.256198 201.173709 152.479339 202.112676 152.479339 203.051643 149.173554 203.990610 142.561983 204.929577 135.950413 205.868545 139.256198 206.807512 129.338843 207.746479 155.785124 208.685446 159.090909 209.624413 172.314050 210.563380 135.950413 211.502347 132.644628 212.441315 139.256198 213.380282 139.256198 214.319249 132.644628 215.258216 132.644628 216.197183 139.256198 217.136150 145.867769 218.075117 132.644628 219.014085 135.950413 219.953052 142.561983 220.892019 145.867769 221.830986 155.785124 222.769953 159.090909 223.708920 145.867769 224.647887 139.256198 225.586854 142.561983 226.525822 145.867769 227.464789 149.173554 228.403756 139.256198 229.342723 149.173554 230.281690 142.561983 231.220657 155.785124 232.159624 165.702479 233.098592 172.314050 234.037559 139.256198 234.976526 109.504132 235.915493 106.198347 236.854460 116.115702 237.793427 142.561983 238.732394 135.950413 239.671362 129.338843 240.610329 135.950413 241.549296 135.950413 242.488263 152.479339 243.427230 152.479339 244.366197 169.008264 245.305164 162.396694 246.244131 135.950413 247.183099 122.727273 248.122066 129.338843 249.061033 159.090909 250.000000 185.537190 250.938967 178.925620 251.877934 165.702479 252.816901 139.256198 253.755869 149.173554 254.694836 149.173554 255.633803 152.479339 256.572770 142.561983 257.511737 139.256198 258.450704 129.338843 259.389671 132.644628 260.328638 139.256198 261.267606 135.950413 262.206573 129.338843 263.145540 135.950413 264.084507 145.867769 265.023474 155.785124 265.962441 162.396694 266.901408 175.619835 267.840376 175.619835 268.779343 132.644628 269.718310 119.421488 270.657277 122.727273 271.596244 149.173554 272.535211 135.950413 273.474178 132.644628 274.413146 142.561983 275.352113 149.173554 276.291080 155.785124 277.230047 129.338843 278.169014 139.256198 279.107981 129.338843 280.046948 152.479339 280.985915 159.090909 281.924883 165.702479 282.863850 142.561983 283.802817 119.421488 284.741784 122.727273 285.680751 129.338843 286.619718 132.644628 287.558685 135.950413 288.497653 139.256198 289.436620 169.008264 290.375587 162.396694 291.314554 145.867769 292.253521 149.173554 293.192488 132.644628 294.131455 162.396694 295.070423 152.479339 296.009390 155.785124 296.948357 149.173554 297.887324 149.173554 298.826291 152.479339 299.765258 145.867769 300.704225 126.033058 301.643192 119.421488 302.582160 129.338843 303.521127 145.867769 304.460094 149.173554 305.399061 145.867769 306.338028 142.561983 307.276995 169.008264 308.215962 159.090909 309.154930 162.396694 310.093897 139.256198 311.032864 155.785124 311.971831 132.644628 312.910798 142.561983 313.849765 142.561983 314.788732 142.561983 315.727700 139.256198 316.666667 122.727273 317.605634 129.338843 318.544601 132.644628 319.483568 145.867769 320.422535 152.479339 321.361502 149.173554 322.300469 152.479339 323.239437 152.479339 324.178404 149.173554 325.117371 132.644628 326.056338 142.561983 326.995305 142.561983 327.934272 149.173554 328.873239 139.256198 329.812207 155.785124 330.751174 172.314050 331.690141 172.314050 332.629108 149.173554 333.568075 132.644628 334.507042 122.727273 335.446009 135.950413 336.384977 126.033058 337.323944 149.173554 338.262911 139.256198 339.201878 162.396694 340.140845 145.867769 341.079812 139.256198 342.018779 116.115702 342.957746 129.338843 343.896714 139.256198 344.835681 152.479339 345.774648 135.950413 346.713615 132.644628 347.652582 129.338843 348.591549 145.867769 349.530516 152.479339 350.469484 145.867769 351.408451 145.867769 352.347418 132.644628 353.286385 139.256198 354.225352 139.256198 355.164319 155.785124 356.103286 162.396694 357.042254 152.479339 357.981221 135.950413 358.920188 126.033058 359.859155 135.950413 360.798122 139.256198 361.737089 135.950413 362.676056 126.033058 363.615023 139.256198 364.553991 155.785124 365.492958 169.008264 366.431925 149.173554 367.370892 142.561983 368.309859 132.644628 369.248826 132.644628 370.187793 126.033058 371.126761 126.033058 372.065728 126.033058 373.004695 132.644628 373.943662 142.561983 374.882629 155.785124 375.821596 165.702479 376.760563 139.256198 377.699531 139.256198 378.638498 126.033058 379.577465 126.033058 380.516432 119.421488 381.455399 135.950413 382.394366 162.396694 383.333333 162.396694 384.272300 139.256198 385.211268 135.950413 386.150235 139.256198 387.089202 152.479339 388.028169 152.479339 388.967136 165.702479 389.906103 152.479339 390.845070 139.256198 391.784038 122.727273 392.723005 119.421488 393.661972 119.421488 394.600939 139.256198 395.539906 139.256198 396.478873 149.173554 397.417840 139.256198 398.356808 152.479339 399.295775 172.314050 400.234742 159.090909 401.173709 149.173554 402.112676 129.338843 403.051643 126.033058 403.990610 139.256198 404.929577 139.256198 405.868545 149.173554 406.807512 155.785124 407.746479 162.396694 408.685446 172.314050 409.624413 172.314050 410.563380 159.090909 411.502347 139.256198 412.441315 122.727273 413.380282 139.256198 414.319249 152.479339 415.258216 152.479339 416.197183 135.950413 417.136150 135.950413 418.075117 135.950413 419.014085 152.479339 419.953052 155.785124 420.892019 155.785124 421.830986 152.479339 422.769953 172.314050 423.708920 175.619835 424.647887 172.314050 425.586854 142.561983 426.525822 135.950413 427.464789 106.198347 428.403756 99.586777 429.342723 112.809917 430.281690 132.644628 431.220657 162.396694 432.159624 159.090909 433.098592 159.090909 434.037559 149.173554 434.976526 139.256198 435.915493 155.785124 436.854460 152.479339 437.793427 152.479339 438.732394 155.785124 439.671362 145.867769 440.610329 155.785124 441.549296 135.950413 442.488263 135.950413 443.427230 129.338843 444.366197 135.950413 445.305164 139.256198 446.244131 145.867769 447.183099 152.479339 448.122066 159.090909 449.061033 169.008264 450.000000 152.479339 450.938967 132.644628 451.877934 126.033058 452.816901 139.256198 453.755869 152.479339 454.694836 155.785124 455.633803 152.479339 456.572770 155.785124 457.511737 169.008264 458.450704 169.008264 459.389671 159.090909 460.328638 145.867769 461.267606 142.561983 462.206573 145.867769 463.145540 122.727273 464.084507 122.727273 465.023474 142.561983 465.962441 152.479339 466.901408 172.314050 467.840376 155.785124 468.779343 155.785124 469.718310 129.338843 470.657277 116.115702 471.596244 119.421488 472.535211 142.561983 473.474178 175.619835 474.413146 178.925620 475.352113 172.314050 476.291080 149.173554 477.230047 142.561983 478.169014 145.867769 479.107981 149.173554 480.046948 139.256198 480.985915 119.421488 481.924883 112.809917 482.863850 119.421488 483.802817 132.644628 484.741784 145.867769 485.680751 139.256198 486.619718 132.644628 487.558685 145.867769 488.497653 159.090909 489.436620 159.090909 490.375587 132.644628 491.314554 132.644628 492.253521 145.867769 493.192488 152.479339 494.131455 135.950413 495.070423 126.033058 496.009390 119.421488 496.948357 142.561983 497.887324 132.644628 498.826291 155.785124 499.765258 152.479339 500.704225 162.396694 501.643192 145.867769 502.582160 149.173554 503.521127 142.561983 504.460094 142.561983 505.399061 129.338843 506.338028 132.644628 507.276995 135.950413 508.215962 159.090909 509.154930 155.785124 510.093897 172.314050 511.032864 155.785124 511.971831 159.090909 512.910798 135.950413 513.849765 142.561983 514.788732 152.479339 515.727700 178.925620 516.666667 169.008264 517.605634 142.561983 518.544601 116.115702 519.483568 99.586777 520.422535 109.504132 521.361502 129.338843 522.300469 152.479339 523.239437 165.702479 524.178404 159.090909 525.117371 155.785124 526.056338 152.479339 526.995305 152.479339 527.934272 152.479339 528.873239 145.867769 529.812207 135.950413 530.751174 142.561983 531.690141 139.256198 532.629108 145.867769 533.568075 145.867769 534.507042 162.396694 535.446009 152.479339 536.384977 142.561983 537.323944 129.338843 538.262911 132.644628 539.201878 135.950413 540.140845 142.561983 541.079812 152.479339 542.018779 155.785124 542.957746 155.785124 543.896714 155.785124 544.835681 145.867769 545.774648 132.644628 546.713615 126.033058 547.652582 126.033058 548.591549 129.338843 549.530516 126.033058 550.469484 132.644628 551.408451 142.561983 552.347418 159.090909 553.286385 172.314050 554.225352 162.396694 555.164319 135.950413 556.103286 139.256198 557.042254 145.867769 557.981221 169.008264 558.920188 149.173554 559.859155 139.256198 560.798122 119.421488 561.737089 132.644628 562.676056 129.338843 563.615023 132.644628 564.553991 132.644628 565.492958 155.785124 566.431925 162.396694 567.370892 152.479339 568.309859 159.090909 569.248826 165.702479 570.187793 155.785124 571.126761 132.644628 572.065728 122.727273 573.004695 135.950413 573.943662 159.090909 574.882629 178.925620 575.821596 162.396694 576.760563 142.561983 577.699531 126.033058 578.638498 152.479339 579.577465 162.396694 580.516432 172.314050 581.455399 152.479339 582.394366 135.950413 583.333333 119.421488 584.272300 132.644628 585.211268 135.950413 586.150235 145.867769 587.089202 126.033058 588.028169 116.115702 588.967136 112.809917 589.906103 129.338843 590.845070 142.561983 591.784038 142.561983 592.723005 145.867769 593.661972 149.173554 594.600939 129.338843 595.539906 119.421488 596.478873 106.198347 597.417840 116.115702 598.356808 129.338843 599.295775 149.173554 600.234742 165.702479 601.173709 155.785124 602.112676 165.702479 603.051643 172.314050 603.990610 175.619835 604.929577 152.479339 605.868545 159.090909 606.807512 149.173554 607.746479 155.785124 608.685446 129.338843 609.624413 149.173554 610.563380 149.173554 611.502347 149.173554 612.441315 135.950413 613.380282 132.644628 614.319249 132.644628 615.258216 126.033058 616.197183 119.421488 617.136150 129.338843 618.075117 142.561983 619.014085 152.479339 619.953052 142.561983 620.892019 145.867769 621.830986 142.561983 622.769953 149.173554 623.708920 139.256198 624.647887 142.561983 625.586854 116.115702 626.525822 96.280992 627.464789 99.586777 628.403756 132.644628 629.342723 152.479339 630.281690 155.785124 631.220657 162.396694 632.159624 162.396694 633.098592 159.090909 634.037559 162.396694 634.976526 172.314050 635.915493 155.785124 636.854460 145.867769 637.793427 149.173554 638.732394 169.008264 639.671362 159.090909 640.610329 142.561983 641.549296 132.644628 642.488263 152.479339 643.427230 155.785124 644.366197 172.314050 645.305164 152.479339 646.244131 162.396694 647.183099 155.785124 648.122066 169.008264 649.061033 149.173554 650.000000 450.000000 " stroke="rgb(0,255,0)" fill="none" stroke-width="2"/>
<text x="600" y="50" fill="rgb(255,0,0)">luminosityNormal.txt</text>
<text x="600" y="70" fill="rgb(0,255,0)">luminosityNoiseRed.txt</text>
<line x1="50" x2="650" y1="450" y2="450" stroke="rgb(100,100,100)" stroke-width="2"/>
<line x1="50" x2="50" y1="450" y2="50" stroke="rgb(100,100,100)" stroke-width="2"/>
<text x="5" y="500" fill="rgb(0,0,0)">0.00</text>
<text x="645.000000" y="500.000000" fill="black">639.00</text>
<text x="250" y="500.000000" fill="black"> step</text>
<text x="5" y="50.000000" fill="black">121.00</text>
<text x="5" y="450.000000" fill="black">0.00</text>
<text x="5" y="250" fill="black">err</text>
</svg>
